<svg width="16" height="16" viewBox="0 0 16 16" fill="none" xmlns="http://www.w3.org/2000/svg">
<g id="cib:codewars" clip-path="url(#clip0_112_1147)">
<path id="Vector" d="M0.508051 8.13306L0.453551 8.10706C0.333212 8.03913 0.236153 7.9365 0.175051 7.81256C0.0874817 7.66038 0.0408006 7.48812 0.0395508 7.31256L0.0525508 7.22656C0.0525508 7.09356 0.0865508 6.97406 0.146551 6.85956L0.201051 6.76056C0.227051 6.70606 0.266051 6.65906 0.300051 6.61456C0.318526 6.59249 0.33129 6.56622 0.337219 6.53805C0.343149 6.50989 0.34206 6.4807 0.334051 6.45306L0.300051 6.34606C0.2595 6.217 0.237612 6.08281 0.235051 5.94756L0.214051 5.86706C0.214051 5.71856 0.253051 5.57256 0.347051 5.46606L0.414551 5.38006C0.461551 5.31256 0.534551 5.27306 0.615051 5.24706C0.680051 5.22606 0.727051 5.15856 0.735051 5.08056L0.748051 4.85406C0.748051 4.67456 0.834051 4.50756 0.967051 4.38506L1.12855 4.26506C1.16005 4.23356 1.19355 4.20006 1.21955 4.14506C1.25355 4.10606 1.26105 4.05106 1.25355 4.01206C1.24055 3.94706 1.25355 3.92606 1.28755 3.91806C1.39455 3.95956 1.46205 3.94656 1.50905 3.89206L1.59505 3.78006L1.83455 3.51206C1.86933 3.4757 1.89277 3.43 1.90201 3.38055C1.91124 3.33109 1.90587 3.28001 1.88655 3.23356L1.80855 3.05906C1.79555 3.02006 1.80855 2.97306 1.84255 2.96006C1.92855 2.96006 1.98855 2.99156 2.01455 3.04606L2.04055 3.09306C2.08205 3.17356 2.17605 3.21306 2.24105 3.17906C2.36285 3.13498 2.49153 3.11297 2.62105 3.11406H2.83455C2.98055 3.11406 3.10005 3.01256 3.12905 2.85906C3.15505 2.67406 3.22005 2.52556 3.31405 2.42656C3.41555 2.31206 3.52755 2.22606 3.66055 2.15856C3.83505 2.06756 3.94205 1.93206 3.97555 1.76006C4.02255 1.54656 4.13455 1.39306 4.28805 1.29406L4.79605 1.00756L4.94205 0.919056C5.02805 0.867056 5.10855 0.799056 5.17655 0.718556L5.30955 0.559556C5.36666 0.495872 5.44071 0.449744 5.52305 0.426556C5.58805 0.405556 5.68205 0.392556 5.76255 0.400556L6.02805 0.418556C6.16105 0.418556 6.26755 0.452556 6.37455 0.499056L6.44205 0.533056C6.50955 0.559056 6.57505 0.546056 6.60855 0.499056L6.66855 0.465056L6.95505 0.165556C6.9844 0.133747 7.0212 0.109736 7.06213 0.0956834C7.10307 0.0816312 7.14685 0.077979 7.18955 0.0850556C7.27555 0.0980556 7.36155 0.132056 7.44205 0.173556C7.56205 0.238556 7.66105 0.264556 7.77555 0.264556H7.84305C7.98905 0.264556 8.13455 0.285556 8.28305 0.319056L8.38205 0.345056C8.43065 0.356996 8.48168 0.354459 8.52886 0.337756C8.57603 0.321054 8.61729 0.290916 8.64755 0.251056C8.65225 0.243262 8.65862 0.236618 8.66622 0.231609C8.67381 0.2266 8.68243 0.223353 8.69145 0.222107C8.70046 0.22086 8.70963 0.221646 8.7183 0.224405C8.72697 0.227165 8.73492 0.231829 8.74155 0.238056C8.76255 0.251056 8.76755 0.264056 8.77555 0.285056C8.78855 0.418056 8.86955 0.519556 8.97605 0.550556L9.08305 0.584556C9.19505 0.618556 9.29655 0.691556 9.36155 0.785056C9.42905 0.884056 9.51005 0.985556 9.60105 1.05056L9.66855 1.11806C9.70166 1.15016 9.74149 1.17453 9.78515 1.1894C9.82881 1.20427 9.87522 1.20928 9.92105 1.20406H10.3141C10.4756 1.20406 10.6291 1.23256 10.7831 1.29806C10.9291 1.36556 11.0826 1.37856 11.2206 1.32406C11.3691 1.27956 11.5226 1.25906 11.6761 1.27956L11.9626 1.32406C12.0956 1.33956 12.2281 1.40456 12.3091 1.50656L12.3431 1.53806C12.4081 1.60556 12.4761 1.69156 12.5411 1.78556C12.5627 1.82656 12.5954 1.86071 12.6354 1.8842C12.6754 1.90769 12.7212 1.91958 12.7676 1.91856H13.1816C13.2831 1.91856 13.3821 1.93956 13.4631 1.98606C13.5491 2.05106 13.6221 2.11906 13.6896 2.18656L13.7546 2.27256C13.8351 2.36656 13.8746 2.49156 13.8691 2.62656C13.8691 2.73356 13.9496 2.82456 14.0541 2.82456L14.1896 2.84006C14.2836 2.84006 14.3616 2.90506 14.4086 2.99106L14.4761 3.12656L14.6481 3.51206C14.6731 3.57118 14.6829 3.63565 14.6766 3.69956C14.6766 3.76456 14.6946 3.81956 14.7416 3.84556L14.8091 3.89256C14.8521 3.92475 14.8858 3.96773 14.9069 4.01717C14.928 4.0666 14.9356 4.12072 14.9291 4.17406L14.8821 4.48656L14.8691 4.61956C14.8636 4.65711 14.8681 4.69544 14.8823 4.73065C14.8964 4.76587 14.9196 4.79671 14.9496 4.82006C15.0486 4.88506 15.0956 4.97356 15.1006 5.07256V5.20556C15.1006 5.27306 15.0876 5.35406 15.0356 5.40606C14.9911 5.46336 14.9673 5.53402 14.9681 5.60656L14.9891 5.76006C14.9891 5.86706 15.0541 5.96056 15.1221 6.02556C15.1664 6.05928 15.2036 6.10157 15.2313 6.14993C15.2591 6.19828 15.2768 6.25171 15.2836 6.30706C15.3096 6.47356 15.3151 6.60656 15.3151 6.73956V6.89306C15.3151 6.94756 15.3151 7.00006 15.3361 7.05206C15.3509 7.10101 15.3811 7.14393 15.4221 7.17456L15.5551 7.27356C15.6906 7.35956 15.7841 7.47406 15.8366 7.62756C15.9041 7.77356 15.9226 7.92706 15.9226 8.08056V8.13256C15.9226 8.25255 15.9095 8.38005 15.8706 8.49205C15.8368 8.60184 15.8432 8.72005 15.8886 8.82555C15.9431 8.91955 15.9771 9.02606 15.9901 9.14056C16.0161 9.27356 16.0031 9.40605 15.9561 9.51305L15.9431 9.56006C15.9084 9.64176 15.856 9.7147 15.7896 9.77356C15.7221 9.84106 15.6566 9.88056 15.6176 9.92706C15.5761 9.96605 15.5501 10.0341 15.5706 10.0936L15.5886 10.1876C15.6226 10.3206 15.6226 10.4531 15.5886 10.5731V10.6276C15.5626 10.7266 15.5236 10.8126 15.4816 10.8931C15.4366 10.9778 15.3678 11.0476 15.2836 11.0936L15.1821 11.1586C15.1575 11.1748 15.1373 11.1968 15.1232 11.2227C15.1092 11.2486 15.1018 11.2776 15.1016 11.3071C15.102 11.3705 15.0789 11.4318 15.0366 11.4791L14.9351 11.6146C14.8701 11.7006 14.784 11.7736 14.6901 11.8126C14.6055 11.8715 14.5269 11.9387 14.4556 12.0131C14.3887 12.0912 14.3389 12.1825 14.3096 12.2811C14.3005 12.3331 14.2732 12.3802 14.2327 12.4141C14.1921 12.448 14.1409 12.4664 14.0881 12.4661H13.7286C13.6346 12.4661 13.5491 12.5336 13.5096 12.6146C13.4719 12.704 13.4201 12.7867 13.3561 12.8596C13.2918 12.927 13.2452 13.0092 13.2206 13.0991C13.2076 13.1796 13.1426 13.2346 13.0746 13.2061C13.0369 13.1889 12.9943 13.1863 12.9548 13.1987C12.9154 13.2112 12.882 13.2379 12.8611 13.2736C12.7936 13.3906 12.7113 13.4983 12.6161 13.5941L12.5691 13.6331C12.4806 13.7006 12.3686 13.7531 12.2671 13.7531C12.1471 13.7531 12.0876 13.8076 12.0691 13.8861C12.048 13.9609 12.0341 14.0376 12.0276 14.1151C12.0133 14.19 11.9915 14.2634 11.9626 14.3341L11.9286 14.3731C11.8611 14.4746 11.8086 14.5736 11.7411 14.6596L11.7151 14.7011C11.6291 14.8131 11.5146 14.9016 11.3816 14.9331C11.2398 14.9805 11.091 15.0033 10.9416 15.0006H10.8476C10.8112 15.0027 10.776 15.0135 10.7447 15.0321C10.7135 15.0507 10.6872 15.0766 10.6681 15.1076L10.6291 15.1751L10.5876 15.2531L10.5016 15.4016C10.4699 15.4593 10.4272 15.5102 10.3758 15.5513C10.3243 15.5924 10.2653 15.6229 10.2021 15.6411C10.0624 15.6751 9.91853 15.6883 9.77505 15.6801L9.66805 15.6671C9.57405 15.6671 9.48855 15.6411 9.40255 15.5996C9.33505 15.5736 9.24105 15.5996 9.20205 15.6671C9.14504 15.7493 9.06268 15.8106 8.96755 15.8416L8.76705 15.9066C8.62929 15.9406 8.48532 15.9406 8.34755 15.9066L8.24055 15.8726C8.1734 15.8679 8.1087 15.8454 8.05305 15.8076C7.99237 15.7751 7.92366 15.7607 7.85505 15.7661L7.76655 15.7816C7.63355 15.7946 7.51405 15.7816 7.39405 15.7476L7.21455 15.7061C7.13168 15.6802 7.06066 15.6258 7.01405 15.5526C6.9934 15.5162 6.96449 15.4852 6.92966 15.4621C6.89483 15.439 6.85506 15.4244 6.81355 15.4196H6.60005C6.46705 15.4016 6.34755 15.3546 6.26655 15.2531L6.00105 15.0006L5.90705 14.9201L5.76105 14.8131L5.67505 14.7481C5.57113 14.6763 5.4514 14.6306 5.32605 14.6151L4.92755 14.5476C4.88605 14.5476 4.86005 14.5346 4.82055 14.5266L4.66705 14.4926C4.59955 14.4796 4.53405 14.4276 4.48755 14.3596C4.44855 14.2946 4.37305 14.2656 4.30805 14.2946C4.17505 14.3466 4.06855 14.3596 3.96155 14.3806H3.86755C3.69789 14.3952 3.52733 14.3656 3.37255 14.2946C3.21355 14.2271 3.10705 14.1281 3.00805 14.0001C2.96777 13.9411 2.91617 13.8907 2.85626 13.8518C2.79635 13.8129 2.72932 13.7863 2.65905 13.7736L2.47405 13.7346C2.33562 13.7059 2.20393 13.6511 2.08605 13.5731C1.95305 13.4791 1.88555 13.3936 1.83355 13.2866C1.77942 13.1831 1.74741 13.0695 1.73955 12.9531V12.9011C1.72655 12.7656 1.63255 12.6461 1.50755 12.6146C1.37216 12.5751 1.24694 12.5066 1.14055 12.4141C1.09346 12.3695 1.05599 12.3158 1.03045 12.2562C1.00492 12.1966 0.991846 12.1324 0.992051 12.0676L1.00755 11.7731C1.00755 11.6586 0.973551 11.5596 0.893051 11.4866C0.812551 11.4061 0.760051 11.3071 0.760051 11.2001L0.739051 10.9606C0.723077 10.785 0.694335 10.6109 0.653051 10.4396C0.614051 10.2861 0.674051 10.1321 0.799051 10.0596L0.846051 10.0256C0.879761 10.0029 0.903946 9.96857 0.913996 9.92919C0.924047 9.88982 0.919261 9.84813 0.900551 9.81206L0.846051 9.74706C0.792121 9.68581 0.722947 9.63992 0.645551 9.61406C0.593551 9.59856 0.580551 9.54656 0.580551 9.51256L0.645551 9.43206C0.663911 9.40963 0.673943 9.38154 0.673943 9.35256C0.673943 9.32357 0.663911 9.29548 0.645551 9.27306C0.597005 9.22174 0.566771 9.15582 0.559551 9.08556L0.546551 8.61956C0.546551 8.52556 0.559551 8.43205 0.585551 8.34105C0.614051 8.26056 0.585551 8.16655 0.507551 8.12755L0.508051 8.13306ZM7.10705 7.25256C7.15405 7.20556 7.14605 7.11956 7.10705 7.08606C7.04434 7.03715 6.99213 6.9761 6.95355 6.90656L6.88605 6.79956C6.84098 6.71548 6.78294 6.63904 6.71405 6.57306L6.70105 6.56006C6.63474 6.50631 6.58214 6.43759 6.54755 6.35956C6.53083 6.32879 6.52208 6.29432 6.52208 6.25931C6.52208 6.22429 6.53083 6.18983 6.54755 6.15906L6.58655 6.09406C6.62928 6.02136 6.65253 5.93887 6.65405 5.85456V5.82606C6.65062 5.75502 6.62723 5.68639 6.58655 5.62806C6.55715 5.56851 6.53531 5.50552 6.52155 5.44056V5.40156C6.51184 5.36109 6.51148 5.31894 6.52048 5.2783C6.52949 5.23767 6.54764 5.19963 6.57355 5.16706C6.62805 5.08106 6.66755 5.00056 6.68805 4.90156V4.88606C6.69991 4.84973 6.70351 4.81122 6.69858 4.77333C6.69365 4.73544 6.68031 4.69913 6.65955 4.66706C6.6393 4.63578 6.62643 4.6003 6.62193 4.5633C6.61742 4.52631 6.6214 4.48878 6.63355 4.45356L6.68055 4.32056C6.71955 4.20056 6.78205 4.09406 6.86005 4.00006L6.95405 3.90106L7.02155 3.82056L7.06055 3.78156C7.08028 3.75987 7.09226 3.73225 7.09461 3.70302C7.09696 3.6738 7.08956 3.64462 7.07355 3.62006C7.03827 3.55955 7.02453 3.48888 7.03455 3.41956L7.04755 3.32556C7.06855 3.19256 7.11505 3.06006 7.20105 2.95306L7.22705 2.92706C7.32605 2.79406 7.45355 2.70556 7.59955 2.65906L7.78205 2.59406C7.86005 2.56806 7.91505 2.47956 7.91505 2.39356C7.91505 2.28656 7.94905 2.19306 8.00855 2.10706L8.04005 2.07306C8.10755 1.96106 8.18855 1.84656 8.24055 1.72656L8.28755 1.64056C8.30029 1.62026 8.30753 1.597 8.30855 1.57306C8.30855 1.46106 8.24105 1.35956 8.13405 1.35406L7.84255 1.33306C7.67605 1.32006 7.50905 1.33306 7.34755 1.33306L6.78255 1.40056C6.69405 1.40056 6.62905 1.46556 6.62105 1.55956C6.62005 1.60387 6.60552 1.64682 6.57943 1.68266C6.55334 1.71849 6.51692 1.74549 6.47505 1.76006L6.23555 1.82506L6.16805 1.84606L5.96755 1.91356C5.89422 1.9376 5.8267 1.97665 5.76928 2.02821C5.71186 2.07977 5.66581 2.14272 5.63405 2.21306L5.58205 2.29906C5.5134 2.4467 5.40167 2.57011 5.26155 2.65306C5.12855 2.73906 5.06105 2.87956 5.04805 3.03856V3.10606C5.03505 3.23906 4.99355 3.37156 4.91505 3.46556L4.88105 3.52006C4.85461 3.55077 4.8374 3.58833 4.83138 3.6284C4.82536 3.66848 4.8308 3.70943 4.84705 3.74656C4.88105 3.82456 4.90155 3.91306 4.89405 3.99906V4.35306C4.89302 4.39529 4.87996 4.43636 4.8564 4.47144C4.83284 4.50651 4.79976 4.53413 4.76105 4.55106C4.71689 4.56703 4.67737 4.5937 4.64604 4.6287C4.61472 4.66369 4.59256 4.7059 4.58155 4.75156L4.54755 4.88456C4.53337 4.94936 4.5384 5.01689 4.56202 5.07888C4.58565 5.14087 4.62684 5.19462 4.68055 5.23356C4.78755 5.31156 4.85505 5.43156 4.88105 5.58006V5.70006C4.90205 5.83306 4.97505 5.96556 5.09455 6.03356C5.21455 6.11406 5.30805 6.23406 5.36005 6.36706L5.39405 6.47406C5.41658 6.53998 5.4575 6.59808 5.51199 6.6415C5.56648 6.68491 5.63226 6.71182 5.70155 6.71906H5.74055C5.86055 6.71906 5.96705 6.78656 6.03505 6.89356C6.10005 7.00056 6.20705 7.07306 6.32655 7.09406L6.51405 7.14606C6.62855 7.18006 6.73555 7.24006 6.82155 7.32556L6.83455 7.34106C6.86989 7.36715 6.91386 7.37873 6.95747 7.37343C7.00107 7.36813 7.04099 7.34635 7.06905 7.31256L7.11605 7.26056L7.10705 7.25256ZM7.86705 6.64056C7.93205 6.67956 8.00005 6.65856 8.02605 6.59906L8.04705 6.56756C8.09405 6.47356 8.15405 6.38006 8.21905 6.29956L8.35455 6.09906C8.37255 6.09906 8.38055 6.08606 8.38605 6.07306L8.54755 5.85956C8.61505 5.79456 8.69355 5.74756 8.78705 5.74756C8.82989 5.74777 8.87183 5.73524 8.90753 5.71156C8.94324 5.68787 8.97109 5.65411 8.98755 5.61456C9.01355 5.52056 9.05255 5.43206 9.13355 5.35956L9.16755 5.32056C9.23505 5.25306 9.30055 5.21906 9.36805 5.18756C9.45405 5.17456 9.53455 5.15906 9.61555 5.15906H9.81355C9.89405 5.15906 9.96205 5.12756 10.0011 5.06006C10.0401 4.99256 10.1 4.94806 10.1676 4.91406L10.2351 4.88556C10.3421 4.84106 10.4616 4.80756 10.5816 4.79456L10.7146 4.78156C10.7951 4.78156 10.8811 4.78156 10.9621 4.82606C11.0271 4.87306 11.1156 4.86756 11.1811 4.81306L11.2281 4.78706C11.3271 4.71956 11.4416 4.66706 11.5616 4.65406H11.5746C11.7026 4.63156 11.8328 4.62451 11.9626 4.63306H12.0276C12.1606 4.65406 12.2751 4.70056 12.3611 4.79956L12.3821 4.82556C12.4496 4.89306 12.5541 4.94806 12.6476 4.94806H12.7621C12.7961 4.94806 12.8271 4.93256 12.8481 4.90106C12.8706 4.87713 12.9013 4.86236 12.9341 4.85956H13.0016C13.0956 4.85956 13.1811 4.88556 13.2671 4.91406L13.3816 4.96106C13.4886 4.99256 13.6006 5.02606 13.7151 5.03906H13.7956C13.8476 5.03906 13.8816 5.00756 13.8816 4.96106C13.884 4.89536 13.8677 4.83031 13.8346 4.77356L13.7876 4.66656C13.7356 4.58056 13.6936 4.48706 13.6546 4.40106L13.6416 4.36706C13.6248 4.33629 13.6161 4.30182 13.6161 4.26681C13.6161 4.23179 13.6248 4.19733 13.6416 4.16656V4.13256C13.6482 4.10598 13.645 4.07791 13.6326 4.05349C13.6202 4.02906 13.5994 4.00992 13.5741 3.99956H13.5221C13.4167 3.96799 13.3233 3.90544 13.2541 3.82006L13.1891 3.75256C13.1216 3.68756 13.0821 3.58606 13.0536 3.48706C13.0221 3.40106 12.9496 3.33356 12.8556 3.33356H12.5741C12.5252 3.32669 12.4782 3.31026 12.4358 3.2852C12.3933 3.26015 12.3562 3.22697 12.3266 3.18756L12.3006 3.15356C12.2524 3.08391 12.2147 3.0076 12.1886 2.92706C12.1546 2.85956 12.0816 2.82006 12.0141 2.84106L11.9336 2.86706C11.8006 2.91406 11.6681 2.93206 11.5351 2.91906L11.4281 2.90606C11.3136 2.90606 11.2066 2.85906 11.1206 2.79406L11.0531 2.74706C11.0023 2.70795 10.9462 2.67629 10.8866 2.65306C10.8216 2.62706 10.7666 2.64006 10.7276 2.68706L10.6936 2.72606C10.6259 2.79644 10.5373 2.84308 10.4411 2.85906L10.0816 2.88006C10.0135 2.88261 9.94919 2.91147 9.90205 2.96056C9.85045 3.00666 9.78743 3.03808 9.71955 3.05156H9.70655C9.64155 3.05156 9.57355 3.09856 9.50855 3.14556V3.15856C9.47697 3.19069 9.4393 3.21621 9.39775 3.23363C9.35621 3.25106 9.31161 3.26004 9.26655 3.26006L9.24055 3.27306C9.16005 3.27306 9.08155 3.27306 9.00105 3.29406H8.92055C8.80855 3.31206 8.72005 3.40606 8.69405 3.52606L8.66805 3.67956C8.64664 3.78411 8.6011 3.88222 8.53505 3.96606C8.46755 4.04656 8.38655 4.09906 8.28755 4.09906H8.17555C8.10805 4.11456 8.04005 4.18756 8.05305 4.26556C8.06855 4.38006 8.05305 4.47906 8.03505 4.58056L8.00905 4.69256C7.99759 4.74 7.97508 4.78406 7.94337 4.82116C7.91165 4.85826 7.87163 4.88735 7.82655 4.90606L7.78755 4.92706H7.77455C7.73555 4.95306 7.70705 5.01306 7.74055 5.06006C7.77899 5.11942 7.7956 5.19029 7.78755 5.26056L7.76655 5.47406C7.76227 5.55113 7.74001 5.62613 7.70155 5.69306C7.6824 5.72257 7.67115 5.7565 7.66888 5.79161C7.6666 5.82671 7.67337 5.86182 7.68855 5.89356L7.75355 6.03956C7.78778 6.10536 7.79531 6.18184 7.77455 6.25306C7.75172 6.31728 7.74285 6.38563 7.74855 6.45356C7.74855 6.52106 7.78755 6.58656 7.84255 6.61506L7.86705 6.64056ZM13.1331 11.4611C13.2006 11.5261 13.2996 11.5521 13.3806 11.5001L13.5136 11.4141C13.5836 11.3658 13.6351 11.2951 13.6596 11.2136V11.2006L13.7271 11.0001L13.7661 10.9326L13.7946 10.8676L13.8206 10.8206C13.8327 10.7927 13.851 10.768 13.874 10.7482C13.8971 10.7284 13.9242 10.714 13.9536 10.7061L13.9796 10.6931C14.034 10.6801 14.0681 10.6281 14.0681 10.5731C14.0681 10.5081 14.0996 10.4531 14.1331 10.4066L14.1876 10.3596L14.3206 10.1876V10.1746C14.3594 10.1198 14.3868 10.0577 14.4011 9.99205C14.4121 9.92469 14.4022 9.85557 14.3726 9.79405L14.3596 9.76556C14.3362 9.7106 14.3204 9.65274 14.3126 9.59356L14.2946 9.40606L14.2736 9.20555C14.2736 9.14056 14.2996 9.07255 14.3411 9.00756C14.3856 8.95306 14.4191 8.88505 14.4481 8.82006V8.79405L14.4611 8.78106C14.4741 8.71356 14.4401 8.64556 14.3806 8.64556C14.3131 8.61406 14.2476 8.55956 14.2271 8.47906L14.2061 8.44005C14.1734 8.32295 14.1559 8.20212 14.1541 8.08056L14.1671 7.74706V7.72606C14.1665 7.67304 14.1452 7.62235 14.1077 7.58486C14.0703 7.54737 14.0196 7.52608 13.9666 7.52556H13.9536C13.8917 7.52798 13.8301 7.5174 13.7727 7.49449C13.7152 7.47158 13.6632 7.43685 13.6201 7.39256L13.5681 7.32506L13.4326 7.17406L13.2606 6.97356C13.1963 6.88071 13.122 6.7952 13.0391 6.71856C12.9741 6.65356 12.8726 6.58556 12.7736 6.57256L12.6406 6.55156C12.5602 6.53498 12.4835 6.50416 12.4141 6.46056C12.3596 6.41906 12.281 6.43206 12.2266 6.48656L12.1406 6.58056L12.0991 6.60656C12.0521 6.61956 12.0081 6.59356 11.9871 6.53906C11.9589 6.45633 11.9635 6.36595 12.0001 6.28656V6.24756C12.0001 6.20056 11.9611 6.16706 11.9196 6.18006H11.8126C11.692 6.1845 11.572 6.16231 11.4611 6.11506L11.3936 6.08656C11.3255 6.05274 11.2506 6.03495 11.1746 6.03456C11.1042 6.03299 11.0348 6.05099 10.9741 6.08656L10.9481 6.10756C10.8676 6.15871 10.7753 6.18833 10.6801 6.19356H10.4611C10.3644 6.19256 10.2701 6.22369 10.1931 6.28206C10.1074 6.33348 10.013 6.36873 9.91455 6.38606L9.73505 6.41456C9.64696 6.43313 9.56422 6.47142 9.49305 6.52656C9.42805 6.59406 9.33405 6.63356 9.24805 6.65956L9.21405 6.67506C9.10472 6.70719 9.01053 6.77743 8.94855 6.87306L8.86805 6.95356C8.84519 6.98445 8.83286 7.02187 8.83286 7.06031C8.83286 7.09874 8.84519 7.13616 8.86805 7.16706C8.90705 7.23456 8.98805 7.25306 9.06855 7.23456L9.16755 7.19306C9.21955 7.17506 9.28205 7.19306 9.32655 7.21906C9.34902 7.2372 9.37486 7.25069 9.40259 7.25876C9.43031 7.26683 9.45936 7.26931 9.48805 7.26606L9.65455 7.24806C9.74855 7.24806 9.84205 7.24806 9.93305 7.27406C10.0345 7.30806 10.1206 7.34156 10.2011 7.40706C10.2768 7.46857 10.3693 7.50585 10.4666 7.51406C10.5681 7.52706 10.6671 7.54806 10.7611 7.58156L10.8261 7.59456C10.8936 7.61556 10.9486 7.65956 10.9876 7.72756C11.0216 7.78206 11.0526 7.86056 11.0526 7.92806V7.94906C11.0526 8.02706 11.1201 8.08206 11.1881 8.08206H11.2271C11.3341 8.08206 11.4486 8.09505 11.5606 8.12906L11.6076 8.14706C11.6794 8.17362 11.7418 8.22074 11.7871 8.28256C11.8415 8.34756 11.8731 8.41556 11.8941 8.48056L11.9151 8.57456C11.9331 8.67605 11.9411 8.77505 11.9411 8.88206V8.91606C11.9411 8.98106 11.9881 9.04906 12.0611 9.07506C12.1286 9.08805 12.2071 9.11656 12.2826 9.15556L12.3141 9.16856C12.4026 9.22056 12.4886 9.28856 12.5536 9.36906L12.5876 9.41606C12.6761 9.51506 12.7206 9.64256 12.7206 9.76756V9.81456C12.7206 9.91605 12.7026 10.0151 12.6686 10.1091C12.6426 10.1896 12.6686 10.2836 12.7546 10.3096L12.8016 10.3436C12.9031 10.3826 12.9891 10.4556 13.0541 10.5416C13.1216 10.6431 13.1481 10.7551 13.1481 10.8751V11.0756C13.1351 11.1431 13.1166 11.1956 13.0831 11.2421C13.0496 11.2886 13.0491 11.3566 13.0831 11.4036L13.1221 11.4686L13.1331 11.4611ZM8.86705 8.04706H8.85405C8.82555 8.04706 8.81255 8.08106 8.82005 8.11456L8.84605 8.24756C8.87205 8.35456 8.88505 8.46105 8.90055 8.56806C8.91355 8.67506 8.96555 8.76606 9.04655 8.83356H9.07255C9.12149 8.87207 9.16166 8.92058 9.19037 8.97584C9.21908 9.03111 9.23568 9.09187 9.23905 9.15406V9.48756C9.22605 9.55256 9.23905 9.62056 9.28055 9.67506L9.31205 9.70656C9.37344 9.78287 9.40898 9.87672 9.41355 9.97456L9.43155 10.3416C9.43155 10.4276 9.37955 10.5006 9.29855 10.5136L9.23355 10.5266C9.18655 10.5266 9.16605 10.5811 9.16605 10.6281C9.16605 10.6801 9.18705 10.7401 9.20505 10.7946V10.8076C9.22605 10.8726 9.23355 10.9406 9.22605 11.0081L9.20005 11.1876C9.17557 11.3179 9.13069 11.4437 9.06705 11.5601L9.02005 11.6406C8.99109 11.6988 8.94336 11.7457 8.88455 11.7736C8.85297 11.7865 8.82466 11.8064 8.80166 11.8316C8.77866 11.8569 8.76155 11.8869 8.75155 11.9196L8.69955 12.1591C8.66173 12.3007 8.60291 12.4359 8.52505 12.5601H8.51205C8.43249 12.6691 8.33033 12.7596 8.21255 12.8256L8.13205 12.8801L7.93155 12.9791C7.89963 12.9938 7.87192 13.0163 7.85095 13.0445C7.82998 13.0727 7.81644 13.1057 7.81155 13.1406L7.78005 13.3596C7.75905 13.4926 7.71255 13.6071 7.61855 13.6931L7.53255 13.7946L7.43105 13.8936L7.33205 14.0006C7.25155 14.0946 7.13155 14.1336 6.99855 14.1151L6.75905 14.0681L6.53755 14.0396H6.47755C6.45155 14.0681 6.44605 14.1071 6.46455 14.1466C6.51155 14.2271 6.58455 14.2821 6.66505 14.2821L6.81105 14.3081C6.87855 14.3081 6.95955 14.3421 7.02455 14.3731C7.09205 14.4201 7.15755 14.4536 7.23805 14.4746H7.25105C7.33955 14.5086 7.43055 14.5136 7.51905 14.5086L7.61805 14.4931C7.73255 14.4801 7.83955 14.4931 7.93055 14.5346L8.01105 14.5606C8.04505 14.5736 8.09705 14.5606 8.13105 14.5266C8.16921 14.4893 8.21443 14.4601 8.26405 14.4406L8.31855 14.4276C8.40455 14.4016 8.49055 14.3861 8.58405 14.3861H8.63855C8.71655 14.3861 8.79205 14.4016 8.85755 14.4406L8.88355 14.4536C8.93055 14.4746 8.98505 14.4536 9.01905 14.4146C9.03705 14.3676 9.08405 14.3206 9.13105 14.2816L9.29755 14.1671L9.40455 14.0996L9.45905 14.0681C9.5304 14.0222 9.61378 13.9987 9.69855 14.0006L9.93805 13.9796C9.98463 13.9736 10.0285 13.9542 10.0641 13.9236C10.0997 13.8931 10.1256 13.8527 10.1386 13.8076C10.1646 13.7061 10.2036 13.6071 10.2716 13.5211C10.3391 13.4326 10.4046 13.3596 10.4721 13.2946C10.547 13.2318 10.64 13.1943 10.7376 13.1876H10.7921C10.8439 13.1772 10.8905 13.1487 10.9233 13.1072C10.9562 13.0657 10.9733 13.0139 10.9716 12.9611V12.5131C10.9846 12.4481 11.0106 12.3596 11.0496 12.2941L11.1851 12.0936L11.2371 12.0261C11.2786 11.9921 11.3046 11.9481 11.3516 11.8931L11.4166 11.8071C11.4581 11.7396 11.458 11.6536 11.4036 11.5936C11.341 11.523 11.3019 11.4348 11.2916 11.3411V11.3126C11.2758 11.2013 11.2819 11.088 11.3096 10.9791V10.9476C11.3436 10.8591 11.39 10.7731 11.4451 10.6926C11.4705 10.6614 11.4826 10.6215 11.4786 10.5815C11.4747 10.5415 11.4551 10.5046 11.4241 10.4791L11.3096 10.3801C11.218 10.2971 11.1613 10.1826 11.1506 10.0596L11.1376 9.92656C11.1376 9.88506 11.1376 9.84056 11.1246 9.79356L11.1116 9.69206C11.103 9.63793 11.0831 9.58625 11.053 9.54047C11.0229 9.49468 10.9834 9.45585 10.9371 9.42656L10.8901 9.41356C10.816 9.36715 10.7521 9.30606 10.7026 9.23406C10.6506 9.16656 10.6246 9.07256 10.6036 8.97906L10.5826 8.86705C10.5826 8.82555 10.5566 8.79956 10.5176 8.78106L10.1971 8.67955C10.1295 8.66656 10.0641 8.61456 10.0176 8.56756H10.0046C9.96305 8.51306 9.89755 8.51306 9.85605 8.55206L9.79105 8.61956C9.77805 8.64056 9.76255 8.64556 9.74405 8.64056C9.70255 8.64056 9.67655 8.60655 9.68955 8.57306C9.69704 8.52088 9.69063 8.46766 9.67096 8.41876C9.65129 8.36986 9.61907 8.32702 9.57755 8.29456L9.48905 8.22706L9.29105 8.09406C9.23655 8.07306 9.15555 8.09406 9.12955 8.15906L9.10355 8.20055C9.10355 8.21355 9.08255 8.21855 9.07755 8.22655C9.04905 8.22655 9.01005 8.22656 9.01005 8.19256L8.98905 8.15856C8.97105 8.11956 8.92405 8.09356 8.88205 8.08056L8.86705 8.04706ZM8.06755 8.71356L8.03355 8.67955C7.99955 8.65355 7.96605 8.65856 7.93205 8.69256C7.88409 8.77186 7.84804 8.85778 7.82505 8.94756V8.96056C7.80705 9.04656 7.72605 9.10655 7.64555 9.09356H7.56755C7.52272 9.09448 7.48008 9.11307 7.44889 9.14528C7.41771 9.17749 7.40051 9.22072 7.40105 9.26556C7.40105 9.38556 7.35955 9.50756 7.28655 9.59906L7.24755 9.64056C7.1775 9.72509 7.08439 9.78746 6.97955 9.82006L6.92755 9.83306C6.89353 9.84172 6.86281 9.86017 6.83917 9.88612C6.81553 9.91207 6.80002 9.94438 6.79455 9.97906C6.79455 10.0466 6.75305 10.1146 6.70055 10.1666L6.63305 10.2186C6.55255 10.3071 6.43255 10.3541 6.31255 10.3671L5.97905 10.4011C5.87205 10.4011 5.78105 10.4661 5.71355 10.5676C5.64605 10.6666 5.54705 10.7341 5.44805 10.7471L5.29955 10.7601C5.18847 10.7751 5.07562 10.7707 4.96605 10.7471L4.90105 10.7341L4.71855 10.6871C4.6905 10.6769 4.65995 10.676 4.63134 10.6845C4.60274 10.6929 4.57759 10.7103 4.55955 10.7341L4.49205 10.8201C4.45131 10.8675 4.39971 10.9044 4.34163 10.9275C4.28356 10.9507 4.22075 10.9594 4.15855 10.9531L3.72605 10.9011C3.65855 10.9011 3.60605 10.8671 3.54655 10.8336C3.47905 10.7946 3.43205 10.7476 3.38505 10.7006L3.21855 10.5001C3.20055 10.4871 3.16655 10.4791 3.13255 10.4871L3.03855 10.5261L2.66605 10.6201C2.59855 10.6411 2.51255 10.6201 2.44705 10.5811C2.37955 10.5266 2.29855 10.5136 2.21805 10.5136H2.13205C2.11252 10.5185 2.0942 10.5274 2.07816 10.5396C2.06213 10.5518 2.04872 10.5671 2.03873 10.5846C2.02875 10.6021 2.02239 10.6214 2.02004 10.6414C2.01769 10.6614 2.01939 10.6817 2.02505 10.7011L2.05105 10.8341C2.07205 10.9016 2.06655 10.9801 2.03305 11.0476C1.99955 11.1151 2.00705 11.1806 2.05105 11.2481L2.09255 11.3001C2.14455 11.3806 2.22555 11.4486 2.29305 11.5136C2.35805 11.5811 2.42605 11.6466 2.47805 11.7351L2.57955 11.9146C2.60153 11.9591 2.63571 11.9965 2.67812 12.0223C2.72052 12.0482 2.7694 12.0614 2.81905 12.0606C2.91805 12.0606 3.01955 12.0946 3.09755 12.1596L3.29805 12.3471C3.35255 12.3941 3.43105 12.4016 3.48555 12.3601L3.51955 12.3471C3.55855 12.3471 3.58455 12.3731 3.58455 12.4146V12.4486C3.58455 12.5346 3.65205 12.6151 3.73805 12.6466L4.03755 12.7141C4.14455 12.7481 4.25105 12.7816 4.35255 12.8471H4.40455C4.41802 12.847 4.43133 12.8441 4.44359 12.8386C4.45585 12.833 4.46679 12.8249 4.47568 12.8148C4.48457 12.8046 4.49121 12.7927 4.49515 12.7799C4.49909 12.767 4.50025 12.7534 4.49855 12.7401V12.5081C4.49855 12.4406 4.52455 12.3726 4.57905 12.3466L4.61305 12.3336C4.64455 12.3466 4.67805 12.3726 4.66505 12.4011V12.5131C4.66505 12.5991 4.69105 12.6796 4.75105 12.7396C4.77943 12.7697 4.81597 12.7908 4.85619 12.8005C4.89641 12.8102 4.93858 12.8079 4.97755 12.7941C5.05805 12.7601 5.13905 12.7526 5.22505 12.7601L5.47255 12.7731C5.59255 12.7861 5.70455 12.7731 5.80605 12.7261C5.92605 12.6871 6.02505 12.6321 6.11855 12.5596L6.15755 12.5336L6.35805 12.3541C6.41974 12.2906 6.50404 12.2541 6.59255 12.2526H6.85805C6.92558 12.2436 6.98833 12.2128 7.03672 12.1649C7.08511 12.117 7.11649 12.0545 7.12605 11.9871L7.15205 11.8541C7.15205 11.7656 7.19105 11.6876 7.25105 11.6196C7.31855 11.5521 7.38405 11.5126 7.45155 11.4866L7.53205 11.4526C7.58854 11.4279 7.63912 11.3914 7.68041 11.3456C7.72171 11.2998 7.75278 11.2458 7.77155 11.1871L7.81055 11.0256C7.84455 10.8926 7.91205 10.7601 8.01105 10.6741L8.02405 10.6586C8.10455 10.5936 8.11805 10.4606 8.06555 10.3671L8.04455 10.3201C8.02122 10.2827 8.00714 10.2403 8.00349 10.1963C7.99984 10.1524 8.00671 10.1083 8.02355 10.0676C8.05755 9.97356 8.09105 9.89305 8.14355 9.81256L8.21105 9.71856C8.23705 9.66656 8.23705 9.58556 8.19805 9.53905C8.15575 9.48653 8.13201 9.42148 8.13055 9.35406L8.11755 9.26006V9.03356C8.12747 8.95909 8.12029 8.88334 8.09655 8.81206L8.07055 8.73406L8.06755 8.71356ZM7.11455 8.20555V8.18756C7.11455 8.12006 7.07305 8.08056 7.02055 8.08056H6.84605C6.78423 8.09357 6.72037 8.09357 6.65855 8.08056H6.35905C6.20555 8.08056 6.05955 8.05206 5.91355 8.01306L5.75205 7.97406L5.61905 7.93256L5.31955 7.83356C5.24268 7.8116 5.17135 7.77354 5.11032 7.72191C5.04928 7.67027 4.99993 7.60623 4.96555 7.53406L4.93155 7.46656C4.88455 7.36756 4.78555 7.31306 4.68655 7.33356C4.57205 7.33356 4.46005 7.33356 4.35305 7.28156L4.27255 7.24756C4.11905 7.18006 4.00705 7.04706 4.00705 6.86756L3.97855 6.68806C3.96055 6.59406 3.90055 6.50856 3.81955 6.47456C3.72583 6.43146 3.63614 6.38009 3.55155 6.32106L3.52005 6.30006C3.41465 6.21942 3.33351 6.11129 3.28555 5.98756L3.27255 5.94856C3.23824 5.84059 3.23375 5.72536 3.25955 5.61506L3.27255 5.57356C3.29855 5.48756 3.30655 5.40156 3.30655 5.30806C3.30555 5.22474 3.27178 5.14517 3.21255 5.08656L3.11855 5.00056C3.06533 4.95757 3.02183 4.9038 2.99089 4.84278C2.95995 4.78176 2.94228 4.71489 2.93905 4.64656C2.9238 4.5043 2.92817 4.36062 2.95205 4.21956V4.18056C2.95192 4.14532 2.93786 4.11157 2.91295 4.08666C2.88804 4.06174 2.85428 4.04769 2.81905 4.04756H2.79805C2.71205 4.04756 2.63905 4.09956 2.59755 4.18056C2.56438 4.26886 2.51485 4.35011 2.45155 4.42006L2.42555 4.45406L2.22505 4.65456C2.15755 4.71956 2.11805 4.82106 2.10505 4.92006C2.09257 5.02159 2.06545 5.12079 2.02455 5.21456L2.01155 5.24856C1.97937 5.32799 1.92633 5.39726 1.85805 5.44906C1.82528 5.47407 1.7983 5.50588 1.77897 5.5423C1.75963 5.57872 1.74841 5.61889 1.74605 5.66006L1.73305 5.96756C1.73305 6.10056 1.71205 6.23556 1.66555 6.36856L1.65255 6.42056C1.63549 6.46081 1.63432 6.50604 1.64925 6.54713C1.66418 6.58823 1.69413 6.62214 1.73305 6.64206L2.01155 6.76206L2.03755 6.77506C2.05855 6.77506 2.06605 6.78806 2.07155 6.80906C2.09255 6.83506 2.07155 6.87406 2.05055 6.87406L1.98555 6.90806C1.94655 6.92106 1.91805 6.96256 1.90505 7.00956L1.89205 7.07456V7.08756L1.82455 7.46256C1.81155 7.51456 1.81155 7.57456 1.81155 7.63456C1.81159 7.66028 1.81926 7.68541 1.83359 7.70677C1.84792 7.72813 1.86827 7.74476 1.89205 7.75456L2.03805 7.82206C2.10555 7.86106 2.18655 7.90806 2.23855 7.95506L2.30605 8.00956C2.32688 8.03676 2.35353 8.05897 2.38405 8.07456L2.41255 8.10056C2.45847 8.14122 2.4912 8.19467 2.50655 8.25406L2.57155 8.55356C2.57155 8.63406 2.63905 8.70206 2.70455 8.72006L2.81155 8.75406C2.81155 8.75406 2.83255 8.75406 2.84555 8.76706L2.97855 8.80856C3.08555 8.84256 3.17905 8.90256 3.26005 8.98056C3.34055 9.04806 3.41905 9.13406 3.48655 9.22806L3.51255 9.25406C3.56705 9.32156 3.64555 9.35556 3.72605 9.33456C3.80655 9.31356 3.89255 9.30856 3.97855 9.30856H4.08005C4.14505 9.30856 4.23355 9.32656 4.30655 9.37356C4.37155 9.41506 4.46005 9.44106 4.53855 9.47506H4.55955C4.59776 9.49036 4.63915 9.49599 4.68006 9.49146C4.72097 9.48692 4.76012 9.47236 4.79405 9.44906C4.86219 9.39536 4.94682 9.36692 5.03355 9.36856L5.34605 9.38656C5.41355 9.38656 5.47905 9.37356 5.51255 9.32156H5.52555L5.64005 9.21456L5.67405 9.18056C5.70044 9.15033 5.73282 9.12593 5.76915 9.10888C5.80547 9.09184 5.84494 9.08253 5.88505 9.08156H6.18705C6.26505 9.08156 6.34055 9.01406 6.37205 8.94855C6.38956 8.9137 6.41486 8.88335 6.44599 8.85986C6.47711 8.83636 6.51324 8.82034 6.55155 8.81306L6.68705 8.78706C6.73905 8.78706 6.78605 8.74006 6.80705 8.68006C6.82299 8.61817 6.85755 8.56266 6.90605 8.52106L7.01305 8.41405C7.07406 8.35773 7.11439 8.28254 7.12755 8.20055L7.11455 8.20555Z" fill="white"/>
</g>
<defs>
<clipPath id="clip0_112_1147">
<rect width="16" height="16" fill="white"/>
</clipPath>
</defs>
</svg>
