<svg width="20" height="20" viewBox="0 0 20 20" fill="none" xmlns="http://www.w3.org/2000/svg">
<g id="ri:codepen-line">
<path id="Vector" d="M13.7501 11.0016L10.8334 12.9458V15.9425L15.9976 12.5L13.7501 11.0016ZM12.2476 9.99996L10.0001 8.50163L7.75258 9.99996L10.0001 11.4983L12.2476 9.99996ZM16.6667 9.05663L15.2526 9.99996L16.6667 10.9433V9.05663ZM15.9976 7.49996L10.8334 4.05746V7.05413L13.7501 8.9983L15.9976 7.49996ZM6.25008 8.9983L9.16675 7.05413V4.05746L4.00258 7.49996L6.25008 8.9983ZM4.00258 12.5L9.16675 15.9425V12.9458L6.25008 11.0016L4.00258 12.5ZM3.33341 10.9433L4.74758 9.99996L3.33341 9.05663V10.9433ZM1.66675 7.49996C1.66673 7.3628 1.70056 7.22776 1.76525 7.10681C1.82994 6.98586 1.92348 6.88275 2.03758 6.80663L9.53758 1.80663C9.67452 1.71526 9.83546 1.6665 10.0001 1.6665C10.1647 1.6665 10.3256 1.71526 10.4626 1.80663L17.9626 6.80663C18.0767 6.88275 18.1702 6.98586 18.2349 7.10681C18.2996 7.22776 18.3334 7.3628 18.3334 7.49996V12.5C18.3334 12.6371 18.2996 12.7722 18.2349 12.8931C18.1702 13.0141 18.0767 13.1172 17.9626 13.1933L10.4626 18.1933C10.3256 18.2847 10.1647 18.3334 10.0001 18.3334C9.83546 18.3334 9.67452 18.2847 9.53758 18.1933L2.03758 13.1933C1.92348 13.1172 1.82994 13.0141 1.76525 12.8931C1.70056 12.7722 1.66673 12.6371 1.66675 12.5V7.49996Z" fill="white"/>
</g>
</svg>
