<svg width="20" height="20" viewBox="0 0 20 20" fill="none" xmlns="http://www.w3.org/2000/svg">
<g id="ri:youtube-fill">
<path id="Vector" d="M10.2034 3.3335C10.6484 3.336 11.7617 3.34683 12.9451 3.39433L13.3651 3.41266C14.5559 3.4685 15.7459 3.56516 16.3367 3.72933C17.1242 3.951 17.7426 4.596 17.9517 5.41433C18.2851 6.71433 18.3267 9.24933 18.3317 9.8635L18.3326 9.99016V10.1352C18.3267 10.7493 18.2851 13.2852 17.9517 14.5843C17.7401 15.4052 17.1209 16.051 16.3367 16.2693C15.7459 16.4335 14.5559 16.5302 13.3651 16.586L12.9451 16.6052C11.7617 16.6518 10.6484 16.6635 10.2034 16.6652L10.0076 16.666H9.79508C8.85342 16.6602 4.91508 16.6177 3.66175 16.2693C2.87508 16.0477 2.25591 15.4027 2.04675 14.5843C1.71341 13.2843 1.67175 10.7493 1.66675 10.1352V9.8635C1.67175 9.24933 1.71341 6.7135 2.04675 5.41433C2.25841 4.5935 2.87758 3.94766 3.66258 3.73016C4.91508 3.381 8.85425 3.3385 9.79592 3.3335H10.2034ZM8.33258 7.0835V12.9168L13.3326 10.0002L8.33258 7.0835Z" fill="white"/>
</g>
</svg>
