<svg width="20" height="20" viewBox="0 0 20 20" fill="none" xmlns="http://www.w3.org/2000/svg">
<g id="teenyicons:github-solid">
<path id="Vector" d="M12.4773 2.86013C10.8475 2.4814 9.15248 2.4814 7.52264 2.86013C6.5813 2.28279 5.86264 2.01746 5.33997 1.90546C5.11689 1.85511 4.88863 1.83139 4.65997 1.83479C4.55592 1.83761 4.45237 1.85011 4.35064 1.87213L4.3373 1.87479L4.33197 1.87746H4.32797L4.51064 2.51879L4.32797 1.87879C4.2343 1.90526 4.14756 1.95193 4.07385 2.0155C4.00014 2.07908 3.94124 2.15802 3.9013 2.24679C3.50793 3.12774 3.43299 4.11802 3.6893 5.04813C3.02548 5.8526 2.66373 6.8638 2.66664 7.90679C2.66664 9.97746 3.2773 11.3695 4.31864 12.2641C5.04797 12.8908 5.9333 13.2241 6.8213 13.4148C6.68156 13.8252 6.62889 14.2602 6.66664 14.6921V15.4895C6.12397 15.6028 5.74797 15.5668 5.47997 15.4788C5.1453 15.3681 4.88797 15.1455 4.6413 14.8255C4.51236 14.653 4.3922 14.4741 4.2813 14.2895L4.2053 14.1655C4.10934 14.0059 4.00976 13.8485 3.90664 13.6935C3.6533 13.3188 3.2773 12.8495 2.6693 12.6895L2.02397 12.5201L1.6853 13.8108L2.33064 13.9801C2.4373 14.0068 2.57597 14.1068 2.80397 14.4415C2.89173 14.5736 2.9762 14.7078 3.0573 14.8441L3.14797 14.9908C3.2733 15.1935 3.4173 15.4175 3.58397 15.6361C3.9213 16.0761 4.3813 16.5201 5.06397 16.7455C5.53064 16.9001 6.0613 16.9375 6.66664 16.8441V19.3335C6.66664 19.5103 6.73687 19.6798 6.8619 19.8049C6.98692 19.9299 7.15649 20.0001 7.3333 20.0001H12.6666C12.8434 20.0001 13.013 19.9299 13.138 19.8049C13.2631 19.6798 13.3333 19.5103 13.3333 19.3335V14.5828C13.3333 14.1628 13.3146 13.7775 13.196 13.4188C14.08 13.2321 14.9586 12.8988 15.684 12.2721C16.724 11.3708 17.3333 9.96546 17.3333 7.88279V7.88146C17.3299 6.84701 16.9681 5.84571 16.3093 5.04813C16.5653 4.11843 16.4904 3.12868 16.0973 2.24813C16.0577 2.15925 15.999 2.08013 15.9256 2.01633C15.8521 1.95252 15.7655 1.90558 15.672 1.87879L15.4893 2.51879C15.672 1.87879 15.6706 1.87879 15.6693 1.87879L15.6666 1.87746L15.6613 1.87479L15.6493 1.87213C15.6164 1.86356 15.583 1.85689 15.5493 1.85213C15.4795 1.84194 15.4092 1.83615 15.3386 1.83479C15.11 1.83142 14.8817 1.85514 14.6586 1.90546C14.1373 2.01746 13.4186 2.28279 12.4773 2.86013Z" fill="white"/>
</g>
</svg>
